<svg
   viewBox="5 19 66.0 28"
   xmlns="http://www.w3.org/2000/svg">
  <circle
     cx="12"
     cy="34"
     r="4"
     fill="#A855F7"
     opacity="0.8"
     id="circle2">
    <animate
       attributeName="opacity"
       values="0.8;0.6;0.8"
       dur="3s"
       repeatCount="indefinite" />
  </circle>
  <circle
     cx="20"
     cy="28"
     r="5"
     fill="#A855F7"
     opacity="0.6"
     id="circle4">
    <animate
       attributeName="opacity"
       values="0.6;0.8;0.6"
       dur="2.5s"
       repeatCount="indefinite" />
  </circle>
  <circle
     cx="16"
     cy="40"
     r="3"
     fill="#A855F7"
     opacity="0.7"
     id="circle6">
    <animate
       attributeName="opacity"
       values="0.7;0.5;0.7"
       dur="2.8s"
       repeatCount="indefinite" />
  </circle>
  <circle
     cx="24"
     cy="38"
     r="2.5"
     fill="#A855F7"
     opacity="0.5"
     id="circle8">
    <animate
       attributeName="opacity"
       values="0.5;0.7;0.5"
       dur="3.2s"
       repeatCount="indefinite" />
  </circle>
  <circle
     cx="10"
     cy="24"
     r="2"
     fill="#A855F7"
     opacity="0.4"
     id="circle10">
    <animate
       attributeName="opacity"
       values="0.4;0.6;0.4"
       dur="2.6s"
       repeatCount="indefinite" />
  </circle>
  <g
     aria-label="apte"
     id="text12"
     style="font-weight:600;font-size:16px;font-family:'JetBrains Mono';fill:#f8fafc">
    <path
       d="M35.74399999999999 38.16Q34.39999999999999 38.16 33.60799999999999 37.4Q32.81599999999999 36.64 32.81599999999999 35.408Q32.81599999999999 34.16 33.66399999999999 33.4Q34.51199999999999 32.64 35.91999999999999 32.64H38.35199999999999V32.0Q38.35199999999999 30.48 36.63999999999999 30.48Q35.87199999999999 30.48 35.40799999999999 30.768Q34.94399999999999 31.056 34.91199999999999 31.567999999999998H33.215999999999994Q33.29599999999999 30.464 34.20799999999999 29.752Q35.11999999999999 29.04 36.65599999999999 29.04Q38.28799999999999 29.04 39.18399999999999 29.816Q40.07999999999999 30.592 40.07999999999999 31.984V38.0H38.38399999999999V36.352H38.367999999999995Q38.25599999999999 37.2 37.56799999999999 37.68Q36.87999999999999 38.16 35.74399999999999 38.16ZM36.239999999999995 36.736Q37.215999999999994 36.736 37.78399999999999 36.263999999999996Q38.35199999999999 35.792 38.35199999999999 34.992V33.856H36.04799999999999Q35.35999999999999 33.856 34.95199999999999 34.256Q34.54399999999999 34.656 34.54399999999999 35.28Q34.54399999999999 35.952 34.99199999999999 36.343999999999994Q35.43999999999999 36.736 36.239999999999995 36.736Z"
       id="path20" />
    <path
       d="M42.767999999999994 40.88V29.2H44.47999999999999V30.864Q44.65599999999999 30.0 45.288 29.52Q45.919999999999995 29.04 46.879999999999995 29.04Q48.19199999999999 29.04 48.97599999999999 29.944Q49.75999999999999 30.848 49.75999999999999 32.352000000000004V34.832Q49.75999999999999 36.352 48.97599999999999 37.256Q48.19199999999999 38.16 46.879999999999995 38.16Q45.919999999999995 38.16 45.279999999999994 37.656Q44.63999999999999 37.152 44.46399999999999 36.272H44.44799999999999L44.495999999999995 38.368V40.88ZM46.27199999999999 36.656Q47.10399999999999 36.656 47.568 36.215999999999994Q48.032 35.775999999999996 48.032 34.8V32.384Q48.032 31.424 47.568 30.984Q47.10399999999999 30.544 46.27199999999999 30.544Q45.43999999999999 30.544 44.96799999999999 31.048000000000002Q44.495999999999995 31.552 44.495999999999995 32.464V34.72Q44.495999999999995 35.648 44.96799999999999 36.152Q45.43999999999999 36.656 46.27199999999999 36.656Z"
       id="path22" />
    <path
       d="M56.703999999999986 38.0Q55.53599999999999 38.0 54.847999999999985 37.328Q54.15999999999999 36.656 54.15999999999999 35.504V30.768H51.679999999999986V29.2H54.15999999999999V26.72H55.887999999999984V29.2H59.43999999999998V30.768H55.887999999999984V35.488Q55.887999999999984 35.903999999999996 56.127999999999986 36.168Q56.36799999999999 36.432 56.783999999999985 36.432H59.359999999999985V38.0Z"
       id="path24" />
    <path
       d="M65.42399999999999 38.16Q63.807999999999986 38.16 62.83199999999999 37.215999999999994Q61.85599999999999 36.272 61.85599999999999 34.64V32.56Q61.85599999999999 30.928 62.83199999999999 29.984Q63.807999999999986 29.04 65.42399999999999 29.04Q66.51199999999999 29.04 67.31199999999998 29.464Q68.112 29.887999999999998 68.55199999999999 30.656Q68.99199999999999 31.424 68.99199999999999 32.448V34.032H63.51999999999999V34.752Q63.51999999999999 35.68 64.03199999999998 36.192Q64.54399999999998 36.704 65.42399999999999 36.704Q66.14399999999999 36.704 66.624 36.44Q67.10399999999998 36.176 67.19999999999999 35.712H68.91199999999999Q68.73599999999999 36.832 67.78399999999999 37.495999999999995Q66.832 38.16 65.42399999999999 38.16ZM63.51999999999999 32.448V32.816H67.32799999999999V32.432Q67.32799999999999 31.456 66.832 30.927999999999997Q66.33599999999998 30.4 65.42399999999999 30.4Q64.51199999999999 30.4 64.01599999999999 30.936Q63.51999999999999 31.472 63.51999999999999 32.448Z"
       id="path26" />
  </g>
</svg>
