<?xml version="1.0" encoding="UTF-8" standalone="no"?>
<svg
   viewBox="0 0 200 60"
   width="400"
   height="120"
   version="1.1"
   id="svg14"
   sodipodi:docname="logo-term.svg"
   xmlns:inkscape="http://www.inkscape.org/namespaces/inkscape"
   xmlns:sodipodi="http://sodipodi.sourceforge.net/DTD/sodipodi-0.dtd"
   xmlns="http://www.w3.org/2000/svg"
   xmlns:svg="http://www.w3.org/2000/svg">
  <defs
     id="defs18" />
  <sodipodi:namedview
     id="namedview16"
     pagecolor="#ffffff"
     bordercolor="#000000"
     borderopacity="0.25"
     inkscape:showpageshadow="2"
     inkscape:pageopacity="0.0"
     inkscape:pagecheckerboard="0"
     inkscape:deskcolor="#d1d1d1" />
  <circle
     cx="12"
     cy="34"
     r="4"
     fill="#A855F7"
     opacity="0.8"
     id="circle2">
    <animate
       attributeName="opacity"
       values="0.8;0.6;0.8"
       dur="3s"
       repeatCount="indefinite" />
  </circle>
  <circle
     cx="20"
     cy="28"
     r="5"
     fill="#A855F7"
     opacity="0.6"
     id="circle4">
    <animate
       attributeName="opacity"
       values="0.6;0.8;0.6"
       dur="2.5s"
       repeatCount="indefinite" />
  </circle>
  <circle
     cx="16"
     cy="40"
     r="3"
     fill="#A855F7"
     opacity="0.7"
     id="circle6">
    <animate
       attributeName="opacity"
       values="0.7;0.5;0.7"
       dur="2.8s"
       repeatCount="indefinite" />
  </circle>
  <circle
     cx="24"
     cy="38"
     r="2.5"
     fill="#A855F7"
     opacity="0.5"
     id="circle8">
    <animate
       attributeName="opacity"
       values="0.5;0.7;0.5"
       dur="3.2s"
       repeatCount="indefinite" />
  </circle>
  <circle
     cx="10"
     cy="24"
     r="2"
     fill="#A855F7"
     opacity="0.4"
     id="circle10">
    <animate
       attributeName="opacity"
       values="0.4;0.6;0.4"
       dur="2.6s"
       repeatCount="indefinite" />
  </circle>
  <g
     aria-label="apte"
     id="text12"
     style="font-weight:600;font-size:16px;font-family:'JetBrains Mono';fill:#f8fafc">
    <path
       d="M35.744 38.16Q34.4 38.16 33.608000000000004 37.4Q32.816 36.64 32.816 35.408Q32.816 34.16 33.664 33.4Q34.512 32.64 35.92 32.64H38.352000000000004V32.0Q38.352000000000004 30.48 36.64 30.48Q35.872 30.48 35.408 30.768Q34.944 31.056 34.912 31.567999999999998H33.216Q33.296 30.464 34.208 29.752Q35.120000000000005 29.04 36.656 29.04Q38.288000000000004 29.04 39.184 29.816Q40.08 30.592 40.08 31.984V38.0H38.384V36.352H38.368Q38.256 37.2 37.568 37.68Q36.88 38.16 35.744 38.16ZM36.24 36.736Q37.216 36.736 37.784000000000006 36.263999999999996Q38.352000000000004 35.792 38.352000000000004 34.992V33.856H36.048Q35.36 33.856 34.952 34.256Q34.544000000000004 34.656 34.544000000000004 35.28Q34.544000000000004 35.952 34.992000000000004 36.343999999999994Q35.440000000000005 36.736 36.24 36.736Z"
       id="path20" />
    <path
       d="M42.768 40.88V29.2H44.48V30.864Q44.656 30.0 45.288 29.52Q45.92 29.04 46.88 29.04Q48.192 29.04 48.976 29.944Q49.76 30.848 49.76 32.352000000000004V34.832Q49.76 36.352 48.976 37.256Q48.192 38.16 46.88 38.16Q45.92 38.16 45.28 37.656Q44.64 37.152 44.464 36.272H44.448L44.496 38.368V40.88ZM46.272 36.656Q47.104 36.656 47.568 36.215999999999994Q48.032 35.775999999999996 48.032 34.8V32.384Q48.032 31.424 47.568 30.984Q47.104 30.544 46.272 30.544Q45.44 30.544 44.968 31.048000000000002Q44.496 31.552 44.496 32.464V34.72Q44.496 35.648 44.968 36.152Q45.44 36.656 46.272 36.656Z"
       id="path22" />
    <path
       d="M56.704 38.0Q55.536 38.0 54.848 37.328Q54.160000000000004 36.656 54.160000000000004 35.504V30.768H51.68V29.2H54.160000000000004V26.72H55.888V29.2H59.44V30.768H55.888V35.488Q55.888 35.903999999999996 56.128 36.168Q56.368 36.432 56.784 36.432H59.36V38.0Z"
       id="path24" />
    <path
       d="M65.42399999999999 38.16Q63.80799999999999 38.16 62.831999999999994 37.215999999999994Q61.855999999999995 36.272 61.855999999999995 34.64V32.56Q61.855999999999995 30.928 62.831999999999994 29.984Q63.80799999999999 29.04 65.42399999999999 29.04Q66.512 29.04 67.312 29.464Q68.112 29.887999999999998 68.55199999999999 30.656Q68.99199999999999 31.424 68.99199999999999 32.448V34.032H63.519999999999996V34.752Q63.519999999999996 35.68 64.032 36.192Q64.544 36.704 65.42399999999999 36.704Q66.14399999999999 36.704 66.624 36.44Q67.104 36.176 67.19999999999999 35.712H68.91199999999999Q68.73599999999999 36.832 67.78399999999999 37.495999999999995Q66.832 38.16 65.42399999999999 38.16ZM63.519999999999996 32.448V32.816H67.32799999999999V32.432Q67.32799999999999 31.456 66.832 30.927999999999997Q66.336 30.4 65.42399999999999 30.4Q64.512 30.4 64.01599999999999 30.936Q63.519999999999996 31.472 63.519999999999996 32.448Z"
       id="path26" />
  </g>
</svg>
